<svg xmlns="http://www.w3.org/2000/svg" xmlns:xlink="http://www.w3.org/1999/xlink" id="LOGOS" viewBox="63.23 66.46 125.31 173.54"><defs><style>.cls-1{fill:url(#linear-gradient);}.cls-2{fill:#fff;}.cls-3{fill:#009b9b;}.cls-4{fill:url(#linear-gradient-3);}.cls-5{fill:url(#linear-gradient-2);}</style><linearGradient id="linear-gradient" x1="121.07" y1="121.37" x2="134.12" y2="121.37" gradientUnits="userSpaceOnUse"><stop offset="0" stop-color="#6ee6d2"/><stop offset="1" stop-color="#bef5fc"/></linearGradient><linearGradient id="linear-gradient-2" x1="159.28" x2="172.33" xlink:href="#linear-gradient"/><linearGradient id="linear-gradient-3" x1="63.23" y1="153.19" x2="173.05" y2="153.19" xlink:href="#linear-gradient"/></defs><path class="cls-1" d="m134.12,121.37c0,3.6-2.93,6.52-6.53,6.52-1.89,0-3.59-.8-4.77-2.09-1.09-1.16-1.75-2.71-1.75-4.43s.66-3.27,1.75-4.43c1.18-1.28,2.88-2.09,4.77-2.09,3.6,0,6.53,2.92,6.53,6.52Z"/><path class="cls-5" d="m172.33,121.37c0,.4-.04.8-.11,1.19-.49,2.67-2.6,4.76-5.28,5.22-.37.08-.75.1-1.13.1-1.58,0-3.02-.56-4.15-1.49-1.45-1.2-2.37-3-2.37-5.03s.92-3.83,2.37-5.03c1.13-.93,2.57-1.49,4.15-1.49.38,0,.76.03,1.12.11,2.68.45,4.8,2.55,5.29,5.22.08.38.11.79.11,1.19Z"/><path class="cls-4" d="m95.51,154.2c-1.86-1.14-3.59-2.47-5.18-3.96-5.49-5.16-9.03-12.09-9.96-19.52-.17-1.25-.26-2.67-.26-4.08,0-.62-.01-1.24-.02-1.86v-.56c-.03-1.13-.04-1.81.02-3.29.04-.95.04-1.72.02-2.8v-.55c-.01-.26-.01-.49-.01-.7l-10.17,10.28c-4.33,4.38-6.72,10.18-6.72,16.35v91.37c0,2.58,1.93,4.76,4.38,4.97.13.02.27.02.42.02.89,0,2.5.04,2.5.04h24.79c-3.57-4.3-5.72-9.81-5.72-15.81s2.09-11.54,5.91-16.04v-53.86Zm60.4-81.26c-9.08-8.78-23.69-8.62-32.57.34l-10.99,11.05c2.3-.21,4.49-.27,6.48-.27,3.19,0,6.32.17,9.08.32h.34c3.92.22,7.62.73,11.2,1.23h.05c2.33.33,4.53.63,6.71.84,4.97.48,9.95,1.09,14.78,1.68l.14.02c3.67.44,7.46.9,11.16,1.3.25.02.51.05.76.08l-17.14-16.59Z"/><path class="cls-2" d="m134.12,121.37c0,3.6-2.93,6.52-6.53,6.52-1.89,0-3.59-.8-4.77-2.09-1.09-1.16-1.75-2.71-1.75-4.43s.66-3.27,1.75-4.43c1.18-1.28,2.88-2.09,4.77-2.09,3.6,0,6.53,2.92,6.53,6.52Z"/><path class="cls-2" d="m172.33,121.37c0,.4-.04.8-.11,1.19-.49,2.67-2.6,4.76-5.28,5.22-.37.08-.75.1-1.13.1-1.58,0-3.02-.56-4.15-1.49-1.45-1.2-2.37-3-2.37-5.03s.92-3.83,2.37-5.03c1.13-.93,2.57-1.49,4.15-1.49.38,0,.76.03,1.12.11,2.68.45,4.8,2.55,5.29,5.22.08.38.11.79.11,1.19Z"/><path class="cls-3" d="m166.93,114.96c-.37-.08-.74-.11-1.12-.11-1.58,0-3.02.56-4.15,1.49-1.45,1.2-2.37,3.01-2.37,5.03s.92,3.83,2.37,5.03c1.13.93,2.57,1.49,4.15,1.49.38,0,.77-.03,1.13-.1,2.68-.46,4.79-2.55,5.28-5.22.08-.39.11-.79.11-1.19s-.04-.81-.11-1.19c-.49-2.67-2.61-4.77-5.29-5.22Z"/><path class="cls-3" d="m127.59,114.85c-1.89,0-3.59.81-4.77,2.09-1.09,1.16-1.75,2.71-1.75,4.43s.66,3.26,1.75,4.43c1.18,1.29,2.88,2.09,4.77,2.09,3.6,0,6.53-2.92,6.53-6.52s-2.93-6.52-6.53-6.52Z"/><path class="cls-3" d="m166.93,114.96c-.36-.08-.74-.11-1.12-.11-1.58,0-3.02.56-4.15,1.49-1.45,1.2-2.37,3-2.37,5.03s.92,3.83,2.37,5.03c1.13.93,2.57,1.49,4.15,1.49.38,0,.77-.03,1.13-.11,2.68-.46,4.79-2.55,5.28-5.22.08-.38.12-.79.12-1.19s-.04-.81-.12-1.19c-.49-2.67-2.61-4.77-5.29-5.22Z"/><path class="cls-3" d="m127.59,114.85c-1.89,0-3.59.81-4.77,2.09-1.09,1.17-1.75,2.71-1.75,4.43s.66,3.26,1.75,4.43c1.18,1.28,2.88,2.09,4.77,2.09,3.6,0,6.53-2.92,6.53-6.52s-2.93-6.52-6.53-6.52Z"/><path class="cls-3" d="m188.53,114.54c-.1-2.18-.48-4.34-1.3-6.33-.49-1.21-1.15-2.36-1.99-3.42-3.37-4.26-8.84-6-14.06-6.54-1.14-.12-2.29-.25-3.44-.38-7.51-.86-15.01-1.88-22.54-2.61-5.86-.56-11.6-1.71-17.5-2.02-4.65-.24-9.78-.54-14.73-.06-6.35.61-12.4,2.47-16.78,7.3-.04.03-.07.07-.11.12-1.2,1.37-2.02,2.9-3.03,4.41-1.05,2.02-1.76,4.11-2.13,6.33-.09.47-.15.95-.2,1.44-.32,3.07-.04,6.12-.17,9.18-.09,2.08,0,4.17,0,6.25,0,.94.06,1.86.18,2.77.65,5.19,3.12,9.8,6.75,13.21,2.39,2.25,5.27,3.97,8.47,4.96v64.92c-3.57,2.62-5.91,6.83-5.91,11.6,0,7.34,5.56,13.42,12.7,14.24.54.06,1.09.09,1.64.09s1.1-.03,1.64-.09c.64-.08,1.27-.19,1.88-.35,3.15-.8,5.89-2.64,7.83-5.14h15.84c2.31,2.98,5.76,5.04,9.71,5.49.53.06,1.08.09,1.63.09s1.11-.03,1.65-.09c7.13-.82,12.69-6.9,12.69-14.24,0-7.92-6.44-14.34-14.34-14.34-4.61,0-8.72,2.18-11.34,5.57h-15.85c-.83-1.07-1.8-2.02-2.9-2.83v-24.64c11.51-1.86,22.42-5.84,32.5-11.86,2.24,1.64,4.97,2.58,7.86,2.58.78,0,1.58-.07,2.38-.22,5.13-.93,9.28-4.8,10.56-9.86.53-2.06-.72-4.15-2.78-4.67-2.05-.51-4.14.72-4.66,2.78-.55,2.15-2.3,3.8-4.49,4.19-3.08.57-6.03-1.48-6.59-4.56-.27-1.48.06-2.99.92-4.24.86-1.24,2.16-2.07,3.65-2.34,2.08-.39,3.46-2.38,3.09-4.47-.38-2.09-2.37-3.48-4.46-3.1-3.52.64-6.56,2.6-8.6,5.54-2.03,2.93-2.79,6.47-2.16,9.99.02.1.04.21.07.31-8.5,5.01-17.65,8.44-27.29,10.17v-31.75c1.8-.39,3.59-.78,5.39-1.16,5.86-1.27,12.21-1.49,18.19-1.62,6.82-.15,13.43.79,20.2,1.16,3.88,0,7.34-.56,10.3-1.64,3.66-1.33,6.56-3.44,8.54-6.21,2.02-2.78,3.1-6.24,3.1-10.24v-13.06c0-.2,0-.41-.01-.61Zm-35.62,105.43c1.36,0,2.61.48,3.58,1.28,1.29,1.04,2.11,2.63,2.11,4.42s-.82,3.38-2.11,4.41c-.97.8-2.22,1.28-3.58,1.28-3.14,0-5.69-2.56-5.69-5.69s2.55-5.7,5.69-5.7Zm-35.01,10.15c-.09.08-.19.15-.29.22-.92.65-2.03,1.02-3.23,1.02s-2.32-.37-3.23-1.02c-1.48-1.02-2.46-2.74-2.46-4.67,0-3.14,2.55-5.7,5.69-5.7,1.33,0,2.55.46,3.52,1.23,1.32,1.04,2.17,2.65,2.17,4.47s-.85,3.42-2.17,4.45Zm64.98-104.84c0,.59-.04,1.18-.11,1.75-.47,3.51-2.31,6.59-4.96,8.68-.3.23-.6.45-.91.66-2.05,1.36-4.51,2.16-7.15,2.2-.17-.02-.44-.06-.8-.1-1.39-.16-4.09-.48-7.34-.82h-.01c-1.54-.15-3.2-.3-4.89-.45-4.06-.34-8.33-.61-11.72-.61-8.28,0-17.64,1.05-22.17,1.64-1.24.16-2.11.28-2.52.34-.81-.01-1.62-.1-2.4-.26-.14-.03-.29-.06-.43-.09-.76-.18-1.5-.42-2.2-.73-.52-.22-1.02-.48-1.51-.77-1.08-.64-2.06-1.42-2.9-2.33-2.27-2.38-3.64-5.59-3.64-9.11v-7.2c0-5.32,3.13-9.91,7.64-12.04,1.71-.81,3.63-1.26,5.64-1.26h49.32c3.33.06,6.37,1.34,8.67,3.43,2.69,2.43,4.39,5.96,4.39,9.87v7.2Z"/></svg>